<svg width="24" height="24" viewBox="0 0 24 24" fill="none" xmlns="http://www.w3.org/2000/svg">
<path d="M3.75013 11.7422C3.55122 11.7422 3.36045 11.8213 3.2198 11.9619C3.07915 12.1026 3.00013 12.2933 3.00013 12.4922C3.00013 12.6912 3.07915 12.8819 3.2198 13.0226C3.36045 13.1632 3.55122 13.2422 3.75013 13.2422L18.2956 13.2422L12.2491 18.6842C12.1047 18.818 12.0186 19.0033 12.0096 19.2C12.0005 19.3967 12.0692 19.589 12.2007 19.7355C12.3323 19.882 12.5161 19.971 12.7127 19.9831C12.9092 19.9952 13.1026 19.9295 13.2511 19.8002L20.7511 13.0502C20.8295 12.9799 20.8921 12.8939 20.935 12.7977C20.9778 12.7016 21 12.5975 21 12.4922C21 12.387 20.9778 12.2829 20.935 12.1867C20.8921 12.0906 20.8295 12.0046 20.7511 11.9342L13.2511 5.18424C13.1026 5.05498 12.9092 4.98931 12.7127 5.00142C12.5161 5.01353 12.3323 5.10243 12.2007 5.24894C12.0692 5.39545 12.0005 5.58782 12.0096 5.78451C12.0186 5.9812 12.1047 6.16644 12.2491 6.30024L18.2956 11.7422L3.75013 11.7422Z" fill="white"/>
</svg>
